<!--?xml version="1.0" encoding="utf-8"?-->
<!-- Generator: Adobe Illustrator 15.1.0, SVG Export Plug-In . SVG Version: 6.00 Build 0)  -->

<svg version="1.1" id="_x32_" xmlns="http://www.w3.org/2000/svg" xmlns:xlink="http://www.w3.org/1999/xlink" x="0px" y="0px" width="512px" height="512px" viewBox="0 0 512 512" style="width: 256px; height: 256px; opacity: 1;" xml:space="preserve">
<style type="text/css">

	.st0{fill:#4B4B4B;}

</style>
<g>
	<path class="st0" d="M256,0C159.969,0,82.109,77.859,82.109,173.906c0,100.719,80.016,163.688,123.297,238.719
		C246.813,484.406,246.781,512,256,512s9.188-27.594,50.594-99.375c43.297-75.031,123.297-138,123.297-238.719
		C429.891,77.859,352.031,0,256,0z M256,240.406c-36.734,0-66.516-29.781-66.516-66.5c0-36.75,29.781-66.531,66.516-66.531
		s66.516,29.781,66.516,66.531C322.516,210.625,292.734,240.406,256,240.406z" style="fill: rgb(223, 86, 86);"></path>
</g>
</svg>
